<svg width="40" height="40" viewBox="0 0 40 40" fill="none" xmlns="http://www.w3.org/2000/svg">
<g clip-path="url(#clip0_11_21)">
<path d="M39.7375 11.6242C39.7375 8.10859 37.1515 5.28047 33.9562 5.28047C29.6281 5.07812 25.214 5 20.7031 5H19.2969C14.7969 5 10.375 5.07812 6.04686 5.28125C2.85936 5.28125 0.273424 8.125 0.273424 11.6406C0.0781118 14.4211 -0.0047007 17.2023 -1.31969e-05 19.9836C-0.0078257 22.7648 0.080716 25.5487 0.265612 28.3352C0.265612 31.8508 2.85155 34.7023 6.03905 34.7023C10.5859 34.9133 15.25 35.007 19.9922 34.9992C24.7422 35.0148 29.3932 34.9159 33.9453 34.7023C37.1406 34.7023 39.7265 31.8508 39.7265 28.3352C39.914 25.5461 40 22.7648 39.9922 19.9758C40.0099 17.1945 39.925 14.4107 39.7375 11.6242ZM16.1719 27.6477V12.2961L27.5 19.968L16.1719 27.6477Z" fill="#9BDCFC"/>
</g>
<defs>
<clipPath id="clip0_11_21">
<rect width="40" height="40" fill="white"/>
</clipPath>
</defs>
</svg>
