<svg width="40" height="40" viewBox="0 0 40 40" fill="none" xmlns="http://www.w3.org/2000/svg">
<path d="M27.2914 5.41641C29.2236 5.42218 31.0751 6.19231 32.4414 7.55861C33.8077 8.92491 34.5778 10.7764 34.5836 12.7086V27.2914C34.5778 29.2236 33.8077 31.0751 32.4414 32.4414C31.0751 33.8077 29.2236 34.5778 27.2914 34.5836H12.7086C10.7764 34.5778 8.92491 33.8077 7.55861 32.4414C6.19231 31.0751 5.42218 29.2236 5.41641 27.2914V12.7086C5.42218 10.7764 6.19231 8.92491 7.55861 7.55861C8.92491 6.19231 10.7764 5.42218 12.7086 5.41641H27.2914ZM27.2914 2.5H12.7086C7.09375 2.5 2.5 7.09375 2.5 12.7086V27.2914C2.5 32.9062 7.09375 37.5 12.7086 37.5H27.2914C32.9062 37.5 37.5 32.9062 37.5 27.2914V12.7086C37.5 7.09375 32.9062 2.5 27.2914 2.5Z" fill="#9BDCFC"/>
<path d="M29.4789 12.7086C29.0463 12.7086 28.6233 12.5803 28.2636 12.3399C27.9039 12.0996 27.6235 11.7579 27.4579 11.3582C27.2924 10.9585 27.249 10.5187 27.3334 10.0943C27.4178 9.67 27.6262 9.28023 27.9321 8.9743C28.238 8.66837 28.6278 8.46003 29.0522 8.37563C29.4765 8.29122 29.9163 8.33454 30.316 8.50011C30.7157 8.66568 31.0574 8.94605 31.2978 9.30579C31.5381 9.66552 31.6664 10.0884 31.6664 10.5211C31.667 10.8085 31.6109 11.0933 31.5012 11.3589C31.3914 11.6246 31.2303 11.866 31.0271 12.0693C30.8238 12.2725 30.5824 12.4336 30.3168 12.5433C30.0511 12.6531 29.7663 12.7092 29.4789 12.7086ZM20 14.1664C21.1538 14.1664 22.2816 14.5085 23.241 15.1495C24.2003 15.7906 24.948 16.7016 25.3895 17.7676C25.8311 18.8335 25.9466 20.0065 25.7215 21.1381C25.4964 22.2697 24.9408 23.3091 24.125 24.125C23.3091 24.9408 22.2697 25.4964 21.1381 25.7215C20.0065 25.9466 18.8335 25.8311 17.7676 25.3895C16.7016 24.948 15.7906 24.2003 15.1495 23.241C14.5085 22.2816 14.1664 21.1538 14.1664 20C14.1681 18.4533 14.7832 16.9705 15.8769 15.8769C16.9705 14.7832 18.4533 14.1681 20 14.1664ZM20 11.25C18.2694 11.25 16.5777 11.7632 15.1388 12.7246C13.6998 13.6861 12.5783 15.0527 11.9161 16.6515C11.2538 18.2504 11.0805 20.0097 11.4181 21.707C11.7558 23.4044 12.5891 24.9635 13.8128 26.1872C15.0365 27.4109 16.5956 28.2443 18.293 28.5819C19.9903 28.9195 21.7496 28.7462 23.3485 28.0839C24.9473 27.4217 26.3139 26.3002 27.2754 24.8612C28.2368 23.4223 28.75 21.7306 28.75 20C28.75 17.6794 27.8281 15.4538 26.1872 13.8128C24.5462 12.1719 22.3206 11.25 20 11.25Z" fill="#9BDCFC"/>
</svg>
